<svg width="32" height="32" viewBox="0 0 32 32" xmlns="http://www.w3.org/2000/svg">
  <!-- Fundo circular branco -->
  <circle cx="16" cy="16" r="16" fill="white"/>
  
  <!-- Logo Biovitta inspirada na nova imagem -->
  <g transform="translate(8, 6)">
    <!-- Figura humana estilizada (DNA/Análises) -->
    <path d="M8 2 C10 2 12 4 12 6 C12 8 10 10 8 10 C6 10 4 8 4 6 C4 4 6 2 8 2 Z" 
          fill="#29A867"/>
    
    <!-- Corpo/Torso -->
    <path d="M6 10 L10 10 L9 16 L7 16 Z" fill="#29A867"/>
    
    <!-- Braços estilizados -->
    <path d="M4 12 L6 11 L6 13 L4 14 Z" fill="#7B2CBF"/>
    <path d="M10 11 L12 12 L12 14 L10 13 Z" fill="#7B2CBF"/>
    
    <!-- Pernas -->
    <path d="M7 16 L6 20 L8 20 L8 16 Z" fill="#29A867"/>
    <path d="M8 16 L8 20 L10 20 L9 16 Z" fill="#29A867"/>
    
    <!-- Elemento científico (molécula) -->
    <circle cx="13" cy="4" r="1" fill="#7B2CBF"/>
    <circle cx="3" cy="8" r="0.8" fill="#7B2CBF"/>
    <path d="M13 4 L8 6" stroke="#7B2CBF" stroke-width="0.5"/>
  </g>
  
  <!-- Borda sutil -->
  <circle cx="16" cy="16" r="15.5" fill="none" stroke="#e0e0e0" stroke-width="1"/>
</svg> 